<svg width="68" height="68" viewBox="0 0 68 68" fill="none" xmlns="http://www.w3.org/2000/svg">
<circle cx="34" cy="34" r="34" fill="#D9D9D9" fill-opacity="0.1"/>
<path d="M34.5 17.375V49.625" stroke="white" strokeWidth="3" strokeLinecap="round" strokeLinejoin="round"/>
<path d="M41.9653 22.75H30.7674C29.3814 22.75 28.0523 23.3163 27.0723 24.3243C26.0923 25.3323 25.5417 26.6995 25.5417 28.125C25.5417 29.5505 26.0923 30.9177 27.0723 31.9257C28.0523 32.9337 29.3814 33.5 30.7674 33.5H38.2327C39.6186 33.5 40.9478 34.0663 41.9278 35.0743C42.9078 36.0823 43.4584 37.4495 43.4584 38.875C43.4584 40.3005 42.9078 41.6677 41.9278 42.6757C40.9478 43.6837 39.6186 44.25 38.2327 44.25H25.5417" stroke="white" strokeWidth="3" strokeLinecap="round" strokeLinejoin="round"/>
</svg>
